<svg xmlns="http://www.w3.org/2000/svg" xmlns:xlink="http://www.w3.org/1999/xlink" contentStyleType="text/css" data-diagram-type="CLASS" height="602px" preserveAspectRatio="none" style="width:465px;height:602px;background:#FFFFFF;" version="1.1" viewBox="0 0 465 602" width="465px" zoomAndPan="magnify"><defs/><g><!--cluster TSC Event Logger (SQL).lvlib--><g class="cluster" data-entity="TSC Event Logger (SQL).lvlib" data-source-line="8" data-uid="ent0003" id="cluster_TSC Event Logger (SQL).lvlib"><path d="M8.5,129 L236.4189,129 A3.75,3.75 0 0 1 238.9189,131.5 L245.9189,151.2969 L455.5,151.2969 A2.5,2.5 0 0 1 458,153.7969 L458,469.95 A2.5,2.5 0 0 1 455.5,472.45 L8.5,472.45 A2.5,2.5 0 0 1 6,469.95 L6,131.5 A2.5,2.5 0 0 1 8.5,129" fill="none" style="stroke:#000000;stroke-width:1.5;"/><line style="stroke:#000000;stroke-width:1.5;" x1="6" x2="245.9189" y1="151.2969" y2="151.2969"/><text fill="#000000" font-family="sans-serif" font-size="14" font-weight="bold" lengthAdjust="spacing" textLength="226.9189" x="10" y="143.9951">TSC Event Logger (SQL).lvlib</text></g><!--cluster TSC Event Logger.lvlib--><g class="cluster" data-entity="TSC Event Logger.lvlib" data-source-line="12" data-uid="ent0005" id="cluster_TSC Event Logger.lvlib"><path d="M139.5,6 L318.8428,6 A3.75,3.75 0 0 1 321.3428,8.5 L328.3428,28.2969 L379.5,28.2969 A2.5,2.5 0 0 1 382,30.7969 L382,102.5 A2.5,2.5 0 0 1 379.5,105 L139.5,105 A2.5,2.5 0 0 1 137,102.5 L137,8.5 A2.5,2.5 0 0 1 139.5,6" fill="none" style="stroke:#000000;stroke-width:1.5;"/><line style="stroke:#000000;stroke-width:1.5;" x1="137" x2="328.3428" y1="28.2969" y2="28.2969"/><text fill="#000000" font-family="sans-serif" font-size="14" font-weight="bold" lengthAdjust="spacing" textLength="178.3428" x="141" y="20.9951">TSC Event Logger.lvlib</text></g><!--cluster SQLite.lvlib--><g class="cluster" data-entity="SQLite.lvlib" data-source-line="34" data-uid="ent0011" id="cluster_SQLite.lvlib"><path d="M12.5,496.45 L104.2539,496.45 A3.75,3.75 0 0 1 106.7539,498.95 L113.7539,518.7469 L324.5,518.7469 A2.5,2.5 0 0 1 327,521.2469 L327,592.95 A2.5,2.5 0 0 1 324.5,595.45 L12.5,595.45 A2.5,2.5 0 0 1 10,592.95 L10,498.95 A2.5,2.5 0 0 1 12.5,496.45" fill="none" style="stroke:#000000;stroke-width:1.5;"/><line style="stroke:#000000;stroke-width:1.5;" x1="10" x2="113.7539" y1="518.7469" y2="518.7469"/><text fill="#000000" font-family="sans-serif" font-size="14" font-weight="bold" lengthAdjust="spacing" textLength="90.7539" x="14" y="511.4451">SQLite.lvlib</text></g><!--class DBLayout--><g class="entity" data-entity="DBLayout" data-source-line="8" data-uid="ent0002" id="entity_DBLayout"><rect fill="#FFFFFF" height="64.2969" rx="2.5" ry="2.5" style="stroke:#555555;stroke-width:0.5;" width="128.7031" x="313.65" y="278.07"/><rect fill="#808080" height="32" rx="2.5" ry="2.5" style="stroke:#808080;stroke-width:0.5;" width="128.7031" x="313.65" y="278.07"/><rect fill="#808080" height="2.5" style="stroke:#808080;stroke-width:0.5;" width="128.7031" x="313.65" y="307.57"/><rect fill="none" height="64.2969" rx="2.5" ry="2.5" style="stroke:#555555;stroke-width:0.5;" width="128.7031" x="313.65" y="278.07"/><ellipse cx="341.577" cy="294.07" fill="#ADD1B2" rx="11" ry="11" style="stroke:#181818;stroke-width:1;"/><path d="M344.5457,299.7106 Q343.9676,300.0075 343.327,300.1481 Q342.6863,300.3044 341.9832,300.3044 Q339.4832,300.3044 338.1551,298.6638 Q336.8426,297.0075 336.8426,293.8825 Q336.8426,290.7575 338.1551,289.1013 Q339.4832,287.445 341.9832,287.445 Q342.6863,287.445 343.327,287.6013 Q343.9832,287.7575 344.5457,288.0544 L344.5457,290.7731 Q343.9207,290.195 343.327,289.9294 Q342.7332,289.6481 342.1082,289.6481 Q340.7645,289.6481 340.077,290.7263 Q339.3895,291.7888 339.3895,293.8825 Q339.3895,295.9763 340.077,297.0544 Q340.7645,298.1169 342.1082,298.1169 Q342.7332,298.1169 343.327,297.8513 Q343.9207,297.57 344.5457,296.9919 L344.5457,299.7106 Z " fill="#000000"/><text fill="#000000" font-family="sans-serif" font-size="14" lengthAdjust="spacing" textLength="67.9766" x="358.4496" y="298.9167">DBLayout</text><line style="stroke:#555555;stroke-width:0.5;" x1="314.65" x2="441.3531" y1="310.07" y2="310.07"/><line style="stroke:#555555;stroke-width:0.5;" x1="314.65" x2="441.3531" y1="318.07" y2="318.07"/><ellipse cx="324.65" cy="331.7184" fill="#84BE84" rx="3" ry="3" style="stroke:#038048;stroke-width:1;"/><text fill="#000000" font-family="sans-serif" font-size="14" lengthAdjust="spacing" textLength="102.7031" x="333.65" y="335.0651">Format Entry()</text></g><!--class SQLite Database--><g class="entity" data-entity="SQLite Database" data-source-line="15" data-uid="ent0007" id="entity_SQLite Database"><rect fill="#FFFFFF" height="292.4531" rx="2.5" ry="2.5" style="stroke:#555555;stroke-width:0.5;" width="256.3369" x="21.83" y="164"/><rect fill="#808080" height="32" rx="2.5" ry="2.5" style="stroke:#808080;stroke-width:0.5;" width="256.3369" x="21.83" y="164"/><rect fill="#808080" height="2.5" style="stroke:#808080;stroke-width:0.5;" width="256.3369" x="21.83" y="193.5"/><rect fill="none" height="292.4531" rx="2.5" ry="2.5" style="stroke:#555555;stroke-width:0.5;" width="256.3369" x="21.83" y="164"/><ellipse cx="87.2738" cy="180" fill="#ADD1B2" rx="11" ry="11" style="stroke:#181818;stroke-width:1;"/><path d="M90.2426,185.6406 Q89.6645,185.9375 89.0238,186.0781 Q88.3832,186.2344 87.6801,186.2344 Q85.1801,186.2344 83.852,184.5938 Q82.5395,182.9375 82.5395,179.8125 Q82.5395,176.6875 83.852,175.0313 Q85.1801,173.375 87.6801,173.375 Q88.3832,173.375 89.0238,173.5313 Q89.6801,173.6875 90.2426,173.9844 L90.2426,176.7031 Q89.6176,176.125 89.0238,175.8594 Q88.4301,175.5781 87.8051,175.5781 Q86.4613,175.5781 85.7738,176.6563 Q85.0863,177.7188 85.0863,179.8125 Q85.0863,181.9063 85.7738,182.9844 Q86.4613,184.0469 87.8051,184.0469 Q88.4301,184.0469 89.0238,183.7813 Q89.6176,183.5 90.2426,182.9219 L90.2426,185.6406 Z " fill="#000000"/><text fill="#000000" font-family="sans-serif" font-size="14" lengthAdjust="spacing" textLength="116.9492" x="107.7738" y="184.8467">SQLite Database</text><line style="stroke:#555555;stroke-width:0.5;" x1="22.83" x2="277.1669" y1="196" y2="196"/><rect fill="none" height="6" style="stroke:#C82930;stroke-width:1;" width="6" x="29.83" y="206.6484"/><text fill="#000000" font-family="sans-serif" font-size="14" lengthAdjust="spacing" textLength="201.6396" x="41.83" y="212.9951">SQLite Connection : LV Class</text><rect fill="none" height="6" style="stroke:#C82930;stroke-width:1;" width="6" x="29.83" y="222.9453"/><text fill="#000000" font-family="sans-serif" font-size="14" lengthAdjust="spacing" textLength="147.1094" x="41.83" y="229.292">name-format : String</text><rect fill="none" height="6" style="stroke:#C82930;stroke-width:1;" width="6" x="29.83" y="239.2422"/><text fill="#000000" font-family="sans-serif" font-size="14" lengthAdjust="spacing" textLength="149.666" x="41.83" y="245.5889">file extension : String</text><rect fill="none" height="6" style="stroke:#C82930;stroke-width:1;" width="6" x="29.83" y="255.5391"/><text fill="#000000" font-family="sans-serif" font-size="14" lengthAdjust="spacing" textLength="100.5498" x="41.83" y="261.8857">location : Path</text><rect fill="none" height="6" style="stroke:#C82930;stroke-width:1;" width="6" x="29.83" y="271.8359"/><text fill="#000000" font-family="sans-serif" font-size="14" lengthAdjust="spacing" textLength="230.3369" x="41.83" y="278.1826">Max File Size (MB) : Double Float</text><rect fill="none" height="6" style="stroke:#C82930;stroke-width:1;" width="6" x="29.83" y="288.1328"/><text fill="#000000" font-family="sans-serif" font-size="14" lengthAdjust="spacing" textLength="131.4004" x="41.83" y="294.4795">N Day Buffer : U32</text><rect fill="none" height="6" style="stroke:#C82930;stroke-width:1;" width="6" x="29.83" y="304.4297"/><text fill="#000000" font-family="sans-serif" font-size="14" lengthAdjust="spacing" textLength="178.1035" x="41.83" y="310.7764">SQL Statement : LV Class</text><rect fill="none" height="6" style="stroke:#C82930;stroke-width:1;" width="6" x="29.83" y="320.7266"/><text fill="#000000" font-family="sans-serif" font-size="14" lengthAdjust="spacing" textLength="102.6006" x="41.83" y="327.0732">file path : Path</text><line style="stroke:#555555;stroke-width:0.5;" x1="22.83" x2="277.1669" y1="334.375" y2="334.375"/><rect fill="#F24D5C" height="6" style="stroke:#C82930;stroke-width:1;" width="6" x="29.83" y="345.0234"/><text fill="#000000" font-family="sans-serif" font-size="14" lengthAdjust="spacing" text-decoration="underline" textLength="116.0742" x="41.83" y="351.3701">Check File Size()</text><rect fill="#F24D5C" height="6" style="stroke:#C82930;stroke-width:1;" width="6" x="29.83" y="361.3203"/><text fill="#000000" font-family="sans-serif" font-size="14" lengthAdjust="spacing" text-decoration="underline" textLength="66.2949" x="41.83" y="367.667">New DB()</text><ellipse cx="32.83" cy="380.6172" fill="#84BE84" rx="3" ry="3" style="stroke:#038048;stroke-width:1;"/><text fill="#000000" font-family="sans-serif" font-size="14" lengthAdjust="spacing" text-decoration="underline" textLength="117.1338" x="41.83" y="383.9639">Construct - File()</text><ellipse cx="32.83" cy="396.9141" fill="#84BE84" rx="3" ry="3" style="stroke:#038048;stroke-width:1;"/><text fill="#000000" font-family="sans-serif" font-size="14" lengthAdjust="spacing" text-decoration="underline" textLength="128.9395" x="41.83" y="400.2607">Construct - Input()</text><ellipse cx="32.83" cy="413.2109" fill="#84BE84" rx="3" ry="3" style="stroke:#038048;stroke-width:1;"/><text fill="#000000" font-family="sans-serif" font-size="14" lengthAdjust="spacing" text-decoration="underline" textLength="78.7363" x="41.83" y="416.5576">Construct()</text><polygon fill="#FFFF44" points="32.83,424.5078,36.83,428.5078,32.83,432.5078,28.83,428.5078" style="stroke:#B38D22;stroke-width:1;"/><text fill="#000000" font-family="sans-serif" font-size="14" lengthAdjust="spacing" textLength="49.0615" x="41.83" y="432.8545">Close()</text><polygon fill="#FFFF44" points="32.83,440.8047,36.83,444.8047,32.83,448.8047,28.83,444.8047" style="stroke:#B38D22;stroke-width:1;"/><text fill="#000000" font-family="sans-serif" font-size="14" lengthAdjust="spacing" textLength="48.5146" x="41.83" y="449.1514">Write()</text></g><!--class Layout--><g class="entity" data-entity="Layout" data-source-line="12" data-uid="ent0004" id="entity_Layout"><rect fill="#FFFFFF" height="48" rx="2.5" ry="2.5" style="stroke:#555555;stroke-width:0.5;" width="79.5918" x="286.2" y="41"/><rect fill="#808080" height="32" rx="2.5" ry="2.5" style="stroke:#808080;stroke-width:0.5;" width="79.5918" x="286.2" y="41"/><rect fill="#808080" height="2.5" style="stroke:#808080;stroke-width:0.5;" width="79.5918" x="286.2" y="70.5"/><rect fill="none" height="48" rx="2.5" ry="2.5" style="stroke:#555555;stroke-width:0.5;" width="79.5918" x="286.2" y="41"/><ellipse cx="301.2" cy="57" fill="#ADD1B2" rx="11" ry="11" style="stroke:#181818;stroke-width:1;"/><path d="M304.1688,62.6406 Q303.5906,62.9375 302.95,63.0781 Q302.3094,63.2344 301.6063,63.2344 Q299.1063,63.2344 297.7781,61.5938 Q296.4656,59.9375 296.4656,56.8125 Q296.4656,53.6875 297.7781,52.0313 Q299.1063,50.375 301.6063,50.375 Q302.3094,50.375 302.95,50.5313 Q303.6063,50.6875 304.1688,50.9844 L304.1688,53.7031 Q303.5438,53.125 302.95,52.8594 Q302.3563,52.5781 301.7313,52.5781 Q300.3875,52.5781 299.7,53.6563 Q299.0125,54.7188 299.0125,56.8125 Q299.0125,58.9063 299.7,59.9844 Q300.3875,61.0469 301.7313,61.0469 Q302.3563,61.0469 302.95,60.7813 Q303.5438,60.5 304.1688,59.9219 L304.1688,62.6406 Z " fill="#000000"/><text fill="#000000" font-family="sans-serif" font-size="14" lengthAdjust="spacing" textLength="47.5918" x="315.2" y="61.8467">Layout</text><line style="stroke:#555555;stroke-width:0.5;" x1="287.2" x2="364.7918" y1="73" y2="73"/><line style="stroke:#555555;stroke-width:0.5;" x1="287.2" x2="364.7918" y1="81" y2="81"/></g><!--class Log Sinks--><g class="entity" data-entity="Log Sinks" data-source-line="33" data-uid="ent0008" id="entity_Log Sinks"><rect fill="#FFFFFF" height="48" rx="2.5" ry="2.5" style="stroke:#555555;stroke-width:0.5;" width="98.7529" x="152.62" y="41"/><rect fill="#808080" height="32" rx="2.5" ry="2.5" style="stroke:#808080;stroke-width:0.5;" width="98.7529" x="152.62" y="41"/><rect fill="#808080" height="2.5" style="stroke:#808080;stroke-width:0.5;" width="98.7529" x="152.62" y="70.5"/><rect fill="none" height="48" rx="2.5" ry="2.5" style="stroke:#555555;stroke-width:0.5;" width="98.7529" x="152.62" y="41"/><ellipse cx="167.62" cy="57" fill="#ADD1B2" rx="11" ry="11" style="stroke:#181818;stroke-width:1;"/><path d="M170.5888,62.6406 Q170.0106,62.9375 169.37,63.0781 Q168.7294,63.2344 168.0263,63.2344 Q165.5263,63.2344 164.1981,61.5938 Q162.8856,59.9375 162.8856,56.8125 Q162.8856,53.6875 164.1981,52.0313 Q165.5263,50.375 168.0263,50.375 Q168.7294,50.375 169.37,50.5313 Q170.0263,50.6875 170.5888,50.9844 L170.5888,53.7031 Q169.9638,53.125 169.37,52.8594 Q168.7763,52.5781 168.1513,52.5781 Q166.8075,52.5781 166.12,53.6563 Q165.4325,54.7188 165.4325,56.8125 Q165.4325,58.9063 166.12,59.9844 Q166.8075,61.0469 168.1513,61.0469 Q168.7763,61.0469 169.37,60.7813 Q169.9638,60.5 170.5888,59.9219 L170.5888,62.6406 Z " fill="#000000"/><text fill="#000000" font-family="sans-serif" font-size="14" lengthAdjust="spacing" textLength="66.7529" x="181.62" y="61.8467">Log Sinks</text><line style="stroke:#555555;stroke-width:0.5;" x1="153.62" x2="250.3729" y1="73" y2="73"/><line style="stroke:#555555;stroke-width:0.5;" x1="153.62" x2="250.3729" y1="81" y2="81"/></g><!--class Connection--><g class="entity" data-entity="Connection" data-source-line="34" data-uid="ent0010" id="entity_Connection"><rect fill="#FFFFFF" height="48" rx="2.5" ry="2.5" style="stroke:#555555;stroke-width:0.5;" width="111.2148" x="199.39" y="531.45"/><rect fill="#808080" height="32" rx="2.5" ry="2.5" style="stroke:#808080;stroke-width:0.5;" width="111.2148" x="199.39" y="531.45"/><rect fill="#808080" height="2.5" style="stroke:#808080;stroke-width:0.5;" width="111.2148" x="199.39" y="560.95"/><rect fill="none" height="48" rx="2.5" ry="2.5" style="stroke:#555555;stroke-width:0.5;" width="111.2148" x="199.39" y="531.45"/><ellipse cx="214.39" cy="547.45" fill="#ADD1B2" rx="11" ry="11" style="stroke:#181818;stroke-width:1;"/><path d="M217.3588,553.0906 Q216.7806,553.3875 216.14,553.5281 Q215.4994,553.6844 214.7963,553.6844 Q212.2963,553.6844 210.9681,552.0438 Q209.6556,550.3875 209.6556,547.2625 Q209.6556,544.1375 210.9681,542.4813 Q212.2963,540.825 214.7963,540.825 Q215.4994,540.825 216.14,540.9813 Q216.7963,541.1375 217.3588,541.4344 L217.3588,544.1531 Q216.7338,543.575 216.14,543.3094 Q215.5463,543.0281 214.9213,543.0281 Q213.5775,543.0281 212.89,544.1063 Q212.2025,545.1688 212.2025,547.2625 Q212.2025,549.3563 212.89,550.4344 Q213.5775,551.4969 214.9213,551.4969 Q215.5463,551.4969 216.14,551.2313 Q216.7338,550.95 217.3588,550.3719 L217.3588,553.0906 Z " fill="#000000"/><text fill="#000000" font-family="sans-serif" font-size="14" lengthAdjust="spacing" textLength="79.2148" x="228.39" y="552.2967">Connection</text><line style="stroke:#555555;stroke-width:0.5;" x1="200.39" x2="309.6048" y1="563.45" y2="563.45"/><line style="stroke:#555555;stroke-width:0.5;" x1="200.39" x2="309.6048" y1="571.45" y2="571.45"/></g><!--class SQL Statement--><g class="entity" data-entity="SQL Statement" data-source-line="35" data-uid="ent0013" id="entity_SQL Statement"><rect fill="#FFFFFF" height="48" rx="2.5" ry="2.5" style="stroke:#555555;stroke-width:0.5;" width="137.8271" x="26.09" y="531.45"/><rect fill="#808080" height="32" rx="2.5" ry="2.5" style="stroke:#808080;stroke-width:0.5;" width="137.8271" x="26.09" y="531.45"/><rect fill="#808080" height="2.5" style="stroke:#808080;stroke-width:0.5;" width="137.8271" x="26.09" y="560.95"/><rect fill="none" height="48" rx="2.5" ry="2.5" style="stroke:#555555;stroke-width:0.5;" width="137.8271" x="26.09" y="531.45"/><ellipse cx="41.09" cy="547.45" fill="#ADD1B2" rx="11" ry="11" style="stroke:#181818;stroke-width:1;"/><path d="M44.0588,553.0906 Q43.4806,553.3875 42.84,553.5281 Q42.1994,553.6844 41.4963,553.6844 Q38.9963,553.6844 37.6681,552.0438 Q36.3556,550.3875 36.3556,547.2625 Q36.3556,544.1375 37.6681,542.4813 Q38.9963,540.825 41.4963,540.825 Q42.1994,540.825 42.84,540.9813 Q43.4963,541.1375 44.0588,541.4344 L44.0588,544.1531 Q43.4338,543.575 42.84,543.3094 Q42.2463,543.0281 41.6213,543.0281 Q40.2775,543.0281 39.59,544.1063 Q38.9025,545.1688 38.9025,547.2625 Q38.9025,549.3563 39.59,550.4344 Q40.2775,551.4969 41.6213,551.4969 Q42.2463,551.4969 42.84,551.2313 Q43.4338,550.95 44.0588,550.3719 L44.0588,553.0906 Z " fill="#000000"/><text fill="#000000" font-family="sans-serif" font-size="14" lengthAdjust="spacing" textLength="105.8271" x="55.09" y="552.2967">SQL Statement</text><line style="stroke:#555555;stroke-width:0.5;" x1="27.09" x2="162.9171" y1="563.45" y2="563.45"/><line style="stroke:#555555;stroke-width:0.5;" x1="27.09" x2="162.9171" y1="571.45" y2="571.45"/></g><!--reverse link Layout to DBLayout--><g class="link" data-entity-1="Layout" data-entity-2="DBLayout" data-source-line="12" data-uid="lnk6" id="link_Layout_DBLayout"><path codeLine="12" d="M334.7536,106.9221 C344.1336,150.7921 360.65,228.05 371.24,277.61" fill="none" id="Layout-backto-DBLayout" style="stroke:#181818;stroke-width:1;"/><polygon fill="none" points="330.99,89.32,328.8862,108.1767,340.621,105.6676,330.99,89.32" style="stroke:#181818;stroke-width:1;"/></g><!--reverse link Log Sinks to SQLite Database--><g class="link" data-entity-1="Log Sinks" data-entity-2="SQLite Database" data-source-line="33" data-uid="lnk9" id="link_Log Sinks_SQLite Database"><path codeLine="33" d="M193.2484,106.9226 C189.3484,125.1726 187.32,134.64 181.13,163.61" fill="none" id="Log Sinks-backto-SQLite Database" style="stroke:#181818;stroke-width:1;"/><polygon fill="none" points="197.01,89.32,187.3808,105.6687,199.1159,108.1764,197.01,89.32" style="stroke:#181818;stroke-width:1;"/></g><!--reverse link SQLite Database to Connection--><g class="link" data-entity-1="SQLite Database" data-entity-2="Connection" data-source-line="34" data-uid="lnk12" id="link_SQLite Database_Connection"><path codeLine="34" d="M217.655,467.9377 C230.145,496.8777 237.06,512.9 244.93,531.13" fill="none" id="SQLite Database-backto-Connection" style="stroke:#181818;stroke-width:1;"/><polygon fill="#181818" points="212.9,456.92,211.605,464.0139,217.655,467.9377,218.9501,460.8438,212.9,456.92" style="stroke:#181818;stroke-width:1;"/></g><!--reverse link SQLite Database to SQL Statement--><g class="link" data-entity-1="SQLite Database" data-entity-2="SQL Statement" data-source-line="35" data-uid="lnk14" id="link_SQLite Database_SQL Statement"><path codeLine="35" d="M114.4049,468.6248 C107.8649,497.5648 104.4,512.9 100.27,531.13" fill="none" id="SQLite Database-backto-SQL Statement" style="stroke:#181818;stroke-width:1;"/><polygon fill="#181818" points="117.05,456.92,111.8258,461.8907,114.4049,468.6248,119.6291,463.6541,117.05,456.92" style="stroke:#181818;stroke-width:1;"/></g><!--SRC=[hPDjQzim4CVVwrCSxPjanQDi38RfApir6wHbmtjuhJXdHqJM6UdSDUlotIVPRhqyG5AOZC6- - -b_TxgJGmOZQtIDB337Hbh9P24MRgrC-AiXrTAvH1Rhob9hbYbf3rnctJh0o2xH3iY7RkqZ6HaUWEjkxGEVK7gDWu0VhyCZ_g6P6l_2WfYfXgMoMB0Y8ugW0XVVyXHk7z0mpAcgqC8a_pgVljKFMYtYMJAN6shv0fx4KusyekKMhZAojMIuDMmtawaGMt6WCkn_tdtp9uhE3IN4MQdvJyK8Cybo8Hrs6POAjKym6dmf6TCN2p7CV_JdDbAXeL7Prn93pbQPQlIMIYFW8wDnlS0-eAcGW_ONoQlHSISV8GkxS_KRONANJ3qoetRXJPacoIDwx_FVGDAMfQykXk_lt-qKuMDAnZgSmB42kXGR7_ib1UTvLMpXfLTHki9YFQRZstK4kiTVC4kE-gxy8JgsRS4GTJAdgS-cQVa45jpFrijKayCToq_h-tTYjAZo5PcrEskwzgT5l7AuteG8lNL0nk7w3s8xlGutu2y0]--></g></svg>