<svg xmlns="http://www.w3.org/2000/svg" xmlns:xlink="http://www.w3.org/1999/xlink" contentStyleType="text/css" data-diagram-type="CLASS" height="602px" preserveAspectRatio="none" style="width:330px;height:602px;background:#FFFFFF;" version="1.1" viewBox="0 0 330 602" width="330px" zoomAndPan="magnify"><defs/><g><!--cluster TSC Event Logger (SQL).lvlib--><g class="cluster" data-entity="TSC Event Logger (SQL).lvlib" data-source-line="8" data-uid="ent0003" id="cluster_TSC Event Logger (SQL).lvlib"><path d="M8.5,129 L236.4189,129 A3.75,3.75 0 0 1 238.9189,131.5 L245.9189,151.2969 L291.5,151.2969 A2.5,2.5 0 0 1 294,153.7969 L294,469.95 A2.5,2.5 0 0 1 291.5,472.45 L8.5,472.45 A2.5,2.5 0 0 1 6,469.95 L6,131.5 A2.5,2.5 0 0 1 8.5,129" fill="none" style="stroke:#000000;stroke-width:1.5;"/><line style="stroke:#000000;stroke-width:1.5;" x1="6" x2="245.9189" y1="151.2969" y2="151.2969"/><text fill="#000000" font-family="sans-serif" font-size="14" font-weight="bold" lengthAdjust="spacing" textLength="226.9189" x="10" y="143.9951">TSC Event Logger (SQL).lvlib</text></g><!--cluster TSC Event Logger.lvlib--><g class="cluster" data-entity="TSC Event Logger.lvlib" data-source-line="26" data-uid="ent0005" id="cluster_TSC Event Logger.lvlib"><path d="M55.5,6 L234.8428,6 A3.75,3.75 0 0 1 237.3428,8.5 L244.3428,28.2969 L244.5,28.2969 A2.5,2.5 0 0 1 247,30.7969 L247,102.5 A2.5,2.5 0 0 1 244.5,105 L55.5,105 A2.5,2.5 0 0 1 53,102.5 L53,8.5 A2.5,2.5 0 0 1 55.5,6" fill="none" style="stroke:#000000;stroke-width:1.5;"/><line style="stroke:#000000;stroke-width:1.5;" x1="53" x2="244.3428" y1="28.2969" y2="28.2969"/><text fill="#000000" font-family="sans-serif" font-size="14" font-weight="bold" lengthAdjust="spacing" textLength="178.3428" x="57" y="20.9951">TSC Event Logger.lvlib</text></g><!--cluster SQLite.lvlib--><g class="cluster" data-entity="SQLite.lvlib" data-source-line="27" data-uid="ent0008" id="cluster_SQLite.lvlib"><path d="M8.5,496.45 L100.2539,496.45 A3.75,3.75 0 0 1 102.7539,498.95 L109.7539,518.7469 L320.5,518.7469 A2.5,2.5 0 0 1 323,521.2469 L323,592.95 A2.5,2.5 0 0 1 320.5,595.45 L8.5,595.45 A2.5,2.5 0 0 1 6,592.95 L6,498.95 A2.5,2.5 0 0 1 8.5,496.45" fill="none" style="stroke:#000000;stroke-width:1.5;"/><line style="stroke:#000000;stroke-width:1.5;" x1="6" x2="109.7539" y1="518.7469" y2="518.7469"/><text fill="#000000" font-family="sans-serif" font-size="14" font-weight="bold" lengthAdjust="spacing" textLength="90.7539" x="10" y="511.4451">SQLite.lvlib</text></g><!--class SQLite Database--><g class="entity" data-entity="SQLite Database" data-source-line="8" data-uid="ent0002" id="entity_SQLite Database"><rect fill="#FFFFFF" height="292.4531" rx="2.5" ry="2.5" style="stroke:#555555;stroke-width:0.5;" width="256.3369" x="21.83" y="164"/><rect fill="#808080" height="32" rx="2.5" ry="2.5" style="stroke:#808080;stroke-width:0.5;" width="256.3369" x="21.83" y="164"/><rect fill="#808080" height="2.5" style="stroke:#808080;stroke-width:0.5;" width="256.3369" x="21.83" y="193.5"/><rect fill="none" height="292.4531" rx="2.5" ry="2.5" style="stroke:#555555;stroke-width:0.5;" width="256.3369" x="21.83" y="164"/><ellipse cx="87.2738" cy="180" fill="#ADD1B2" rx="11" ry="11" style="stroke:#181818;stroke-width:1;"/><path d="M90.2426,185.6406 Q89.6645,185.9375 89.0238,186.0781 Q88.3832,186.2344 87.6801,186.2344 Q85.1801,186.2344 83.852,184.5938 Q82.5395,182.9375 82.5395,179.8125 Q82.5395,176.6875 83.852,175.0313 Q85.1801,173.375 87.6801,173.375 Q88.3832,173.375 89.0238,173.5313 Q89.6801,173.6875 90.2426,173.9844 L90.2426,176.7031 Q89.6176,176.125 89.0238,175.8594 Q88.4301,175.5781 87.8051,175.5781 Q86.4613,175.5781 85.7738,176.6563 Q85.0863,177.7188 85.0863,179.8125 Q85.0863,181.9063 85.7738,182.9844 Q86.4613,184.0469 87.8051,184.0469 Q88.4301,184.0469 89.0238,183.7813 Q89.6176,183.5 90.2426,182.9219 L90.2426,185.6406 Z " fill="#000000"/><text fill="#000000" font-family="sans-serif" font-size="14" lengthAdjust="spacing" textLength="116.9492" x="107.7738" y="184.8467">SQLite Database</text><line style="stroke:#555555;stroke-width:0.5;" x1="22.83" x2="277.1669" y1="196" y2="196"/><rect fill="none" height="6" style="stroke:#C82930;stroke-width:1;" width="6" x="29.83" y="206.6484"/><text fill="#000000" font-family="sans-serif" font-size="14" lengthAdjust="spacing" textLength="201.6396" x="41.83" y="212.9951">SQLite Connection : LV Class</text><rect fill="none" height="6" style="stroke:#C82930;stroke-width:1;" width="6" x="29.83" y="222.9453"/><text fill="#000000" font-family="sans-serif" font-size="14" lengthAdjust="spacing" textLength="147.1094" x="41.83" y="229.292">name-format : String</text><rect fill="none" height="6" style="stroke:#C82930;stroke-width:1;" width="6" x="29.83" y="239.2422"/><text fill="#000000" font-family="sans-serif" font-size="14" lengthAdjust="spacing" textLength="149.666" x="41.83" y="245.5889">file extension : String</text><rect fill="none" height="6" style="stroke:#C82930;stroke-width:1;" width="6" x="29.83" y="255.5391"/><text fill="#000000" font-family="sans-serif" font-size="14" lengthAdjust="spacing" textLength="100.5498" x="41.83" y="261.8857">location : Path</text><rect fill="none" height="6" style="stroke:#C82930;stroke-width:1;" width="6" x="29.83" y="271.8359"/><text fill="#000000" font-family="sans-serif" font-size="14" lengthAdjust="spacing" textLength="230.3369" x="41.83" y="278.1826">Max File Size (MB) : Double Float</text><rect fill="none" height="6" style="stroke:#C82930;stroke-width:1;" width="6" x="29.83" y="288.1328"/><text fill="#000000" font-family="sans-serif" font-size="14" lengthAdjust="spacing" textLength="131.4004" x="41.83" y="294.4795">N Day Buffer : U32</text><rect fill="none" height="6" style="stroke:#C82930;stroke-width:1;" width="6" x="29.83" y="304.4297"/><text fill="#000000" font-family="sans-serif" font-size="14" lengthAdjust="spacing" textLength="178.1035" x="41.83" y="310.7764">SQL Statement : LV Class</text><rect fill="none" height="6" style="stroke:#C82930;stroke-width:1;" width="6" x="29.83" y="320.7266"/><text fill="#000000" font-family="sans-serif" font-size="14" lengthAdjust="spacing" textLength="102.6006" x="41.83" y="327.0732">file path : Path</text><line style="stroke:#555555;stroke-width:0.5;" x1="22.83" x2="277.1669" y1="334.375" y2="334.375"/><rect fill="#F24D5C" height="6" style="stroke:#C82930;stroke-width:1;" width="6" x="29.83" y="345.0234"/><text fill="#000000" font-family="sans-serif" font-size="14" lengthAdjust="spacing" text-decoration="underline" textLength="116.0742" x="41.83" y="351.3701">Check File Size()</text><rect fill="#F24D5C" height="6" style="stroke:#C82930;stroke-width:1;" width="6" x="29.83" y="361.3203"/><text fill="#000000" font-family="sans-serif" font-size="14" lengthAdjust="spacing" text-decoration="underline" textLength="66.2949" x="41.83" y="367.667">New DB()</text><ellipse cx="32.83" cy="380.6172" fill="#84BE84" rx="3" ry="3" style="stroke:#038048;stroke-width:1;"/><text fill="#000000" font-family="sans-serif" font-size="14" lengthAdjust="spacing" text-decoration="underline" textLength="117.1338" x="41.83" y="383.9639">Construct - File()</text><ellipse cx="32.83" cy="396.9141" fill="#84BE84" rx="3" ry="3" style="stroke:#038048;stroke-width:1;"/><text fill="#000000" font-family="sans-serif" font-size="14" lengthAdjust="spacing" text-decoration="underline" textLength="128.9395" x="41.83" y="400.2607">Construct - Input()</text><ellipse cx="32.83" cy="413.2109" fill="#84BE84" rx="3" ry="3" style="stroke:#038048;stroke-width:1;"/><text fill="#000000" font-family="sans-serif" font-size="14" lengthAdjust="spacing" text-decoration="underline" textLength="78.7363" x="41.83" y="416.5576">Construct()</text><polygon fill="#FFFF44" points="32.83,424.5078,36.83,428.5078,32.83,432.5078,28.83,428.5078" style="stroke:#B38D22;stroke-width:1;"/><text fill="#000000" font-family="sans-serif" font-size="14" lengthAdjust="spacing" textLength="49.0615" x="41.83" y="432.8545">Close()</text><polygon fill="#FFFF44" points="32.83,440.8047,36.83,444.8047,32.83,448.8047,28.83,444.8047" style="stroke:#B38D22;stroke-width:1;"/><text fill="#000000" font-family="sans-serif" font-size="14" lengthAdjust="spacing" textLength="48.5146" x="41.83" y="449.1514">Write()</text></g><!--class Log Sinks--><g class="entity" data-entity="Log Sinks" data-source-line="26" data-uid="ent0004" id="entity_Log Sinks"><rect fill="#FFFFFF" height="48" rx="2.5" ry="2.5" style="stroke:#555555;stroke-width:0.5;" width="98.7529" x="100.62" y="41"/><rect fill="#808080" height="32" rx="2.5" ry="2.5" style="stroke:#808080;stroke-width:0.5;" width="98.7529" x="100.62" y="41"/><rect fill="#808080" height="2.5" style="stroke:#808080;stroke-width:0.5;" width="98.7529" x="100.62" y="70.5"/><rect fill="none" height="48" rx="2.5" ry="2.5" style="stroke:#555555;stroke-width:0.5;" width="98.7529" x="100.62" y="41"/><ellipse cx="115.62" cy="57" fill="#ADD1B2" rx="11" ry="11" style="stroke:#181818;stroke-width:1;"/><path d="M118.5888,62.6406 Q118.0106,62.9375 117.37,63.0781 Q116.7294,63.2344 116.0263,63.2344 Q113.5263,63.2344 112.1981,61.5938 Q110.8856,59.9375 110.8856,56.8125 Q110.8856,53.6875 112.1981,52.0313 Q113.5263,50.375 116.0263,50.375 Q116.7294,50.375 117.37,50.5313 Q118.0263,50.6875 118.5888,50.9844 L118.5888,53.7031 Q117.9638,53.125 117.37,52.8594 Q116.7763,52.5781 116.1513,52.5781 Q114.8075,52.5781 114.12,53.6563 Q113.4325,54.7188 113.4325,56.8125 Q113.4325,58.9063 114.12,59.9844 Q114.8075,61.0469 116.1513,61.0469 Q116.7763,61.0469 117.37,60.7813 Q117.9638,60.5 118.5888,59.9219 L118.5888,62.6406 Z " fill="#000000"/><text fill="#000000" font-family="sans-serif" font-size="14" lengthAdjust="spacing" textLength="66.7529" x="129.62" y="61.8467">Log Sinks</text><line style="stroke:#555555;stroke-width:0.5;" x1="101.62" x2="198.3729" y1="73" y2="73"/><line style="stroke:#555555;stroke-width:0.5;" x1="101.62" x2="198.3729" y1="81" y2="81"/></g><!--class Connection--><g class="entity" data-entity="Connection" data-source-line="27" data-uid="ent0007" id="entity_Connection"><rect fill="#FFFFFF" height="48" rx="2.5" ry="2.5" style="stroke:#555555;stroke-width:0.5;" width="111.2148" x="195.39" y="531.45"/><rect fill="#808080" height="32" rx="2.5" ry="2.5" style="stroke:#808080;stroke-width:0.5;" width="111.2148" x="195.39" y="531.45"/><rect fill="#808080" height="2.5" style="stroke:#808080;stroke-width:0.5;" width="111.2148" x="195.39" y="560.95"/><rect fill="none" height="48" rx="2.5" ry="2.5" style="stroke:#555555;stroke-width:0.5;" width="111.2148" x="195.39" y="531.45"/><ellipse cx="210.39" cy="547.45" fill="#ADD1B2" rx="11" ry="11" style="stroke:#181818;stroke-width:1;"/><path d="M213.3588,553.0906 Q212.7806,553.3875 212.14,553.5281 Q211.4994,553.6844 210.7963,553.6844 Q208.2963,553.6844 206.9681,552.0438 Q205.6556,550.3875 205.6556,547.2625 Q205.6556,544.1375 206.9681,542.4813 Q208.2963,540.825 210.7963,540.825 Q211.4994,540.825 212.14,540.9813 Q212.7963,541.1375 213.3588,541.4344 L213.3588,544.1531 Q212.7338,543.575 212.14,543.3094 Q211.5463,543.0281 210.9213,543.0281 Q209.5775,543.0281 208.89,544.1063 Q208.2025,545.1688 208.2025,547.2625 Q208.2025,549.3563 208.89,550.4344 Q209.5775,551.4969 210.9213,551.4969 Q211.5463,551.4969 212.14,551.2313 Q212.7338,550.95 213.3588,550.3719 L213.3588,553.0906 Z " fill="#000000"/><text fill="#000000" font-family="sans-serif" font-size="14" lengthAdjust="spacing" textLength="79.2148" x="224.39" y="552.2967">Connection</text><line style="stroke:#555555;stroke-width:0.5;" x1="196.39" x2="305.6048" y1="563.45" y2="563.45"/><line style="stroke:#555555;stroke-width:0.5;" x1="196.39" x2="305.6048" y1="571.45" y2="571.45"/></g><!--class SQL Statement--><g class="entity" data-entity="SQL Statement" data-source-line="28" data-uid="ent0010" id="entity_SQL Statement"><rect fill="#FFFFFF" height="48" rx="2.5" ry="2.5" style="stroke:#555555;stroke-width:0.5;" width="137.8271" x="22.09" y="531.45"/><rect fill="#808080" height="32" rx="2.5" ry="2.5" style="stroke:#808080;stroke-width:0.5;" width="137.8271" x="22.09" y="531.45"/><rect fill="#808080" height="2.5" style="stroke:#808080;stroke-width:0.5;" width="137.8271" x="22.09" y="560.95"/><rect fill="none" height="48" rx="2.5" ry="2.5" style="stroke:#555555;stroke-width:0.5;" width="137.8271" x="22.09" y="531.45"/><ellipse cx="37.09" cy="547.45" fill="#ADD1B2" rx="11" ry="11" style="stroke:#181818;stroke-width:1;"/><path d="M40.0588,553.0906 Q39.4806,553.3875 38.84,553.5281 Q38.1994,553.6844 37.4963,553.6844 Q34.9963,553.6844 33.6681,552.0438 Q32.3556,550.3875 32.3556,547.2625 Q32.3556,544.1375 33.6681,542.4813 Q34.9963,540.825 37.4963,540.825 Q38.1994,540.825 38.84,540.9813 Q39.4963,541.1375 40.0588,541.4344 L40.0588,544.1531 Q39.4338,543.575 38.84,543.3094 Q38.2463,543.0281 37.6213,543.0281 Q36.2775,543.0281 35.59,544.1063 Q34.9025,545.1688 34.9025,547.2625 Q34.9025,549.3563 35.59,550.4344 Q36.2775,551.4969 37.6213,551.4969 Q38.2463,551.4969 38.84,551.2313 Q39.4338,550.95 40.0588,550.3719 L40.0588,553.0906 Z " fill="#000000"/><text fill="#000000" font-family="sans-serif" font-size="14" lengthAdjust="spacing" textLength="105.8271" x="51.09" y="552.2967">SQL Statement</text><line style="stroke:#555555;stroke-width:0.5;" x1="23.09" x2="158.9171" y1="563.45" y2="563.45"/><line style="stroke:#555555;stroke-width:0.5;" x1="23.09" x2="158.9171" y1="571.45" y2="571.45"/></g><!--reverse link Log Sinks to SQLite Database--><g class="link" data-entity-1="Log Sinks" data-entity-2="SQLite Database" data-source-line="26" data-uid="lnk6" id="link_Log Sinks_SQLite Database"><path codeLine="26" d="M150,107.32 C150,125.57 150,134.64 150,163.61" fill="none" id="Log Sinks-backto-SQLite Database" style="stroke:#181818;stroke-width:1;"/><polygon fill="none" points="150,89.32,144,107.32,156,107.32,150,89.32" style="stroke:#181818;stroke-width:1;"/></g><!--reverse link SQLite Database to Connection--><g class="link" data-entity-1="SQLite Database" data-entity-2="Connection" data-source-line="27" data-uid="lnk9" id="link_SQLite Database_Connection"><path codeLine="27" d="M215.1029,468.0021 C227.1229,496.9421 233.75,512.9 241.32,531.13" fill="none" id="SQLite Database-backto-Connection" style="stroke:#181818;stroke-width:1;"/><polygon fill="#181818" points="210.5,456.92,209.1074,463.9954,215.1029,468.0021,216.4955,460.9268,210.5,456.92" style="stroke:#181818;stroke-width:1;"/></g><!--reverse link SQLite Database to SQL Statement--><g class="link" data-entity-1="SQLite Database" data-entity-2="SQL Statement" data-source-line="28" data-uid="lnk11" id="link_SQLite Database_SQL Statement"><path codeLine="28" d="M111.8312,468.5818 C104.8112,497.5218 101.08,512.9 96.66,531.13" fill="none" id="SQLite Database-backto-SQL Statement" style="stroke:#181818;stroke-width:1;"/><polygon fill="#181818" points="114.66,456.92,109.3583,461.808,111.8312,468.5818,117.1329,463.6938,114.66,456.92" style="stroke:#181818;stroke-width:1;"/></g><!--SRC=[hPBRQjj048Rlzoa6vyPEK0ajWM1oPRcc1ISqA6skr_B8NhpQ4RkZD8tZTy-ih4Jn0KAWAmJQcK__70CoE5rYg7IE6LRQQoOFGnLMniLR2QdL8Onqlbfugjqy9Il0oQGv1nZvEVeMkMZEFZ8Xnormtfnzu0TgqJW8U7aU7_MEPghaXHanKmbpup5dGqxbKGLwTraAtn_GCKnfiK0F_UnsElXY7woP3UNJCC9OivxfW3rOgtLXqCutaBI-b9pRAi8Gfd-soNLKx5fIa2yrYpzZRzoYynR68k0ZemjRWNt0KgvRxL-QbvtZMZ_29FwTcIU4_lLe8CYOwfcO9fOqT-YDvFyFHdLHI7L3-FtjwquH4bCpbh43nmfeKgmazbiAGNYJRs1T8YyfCkaIyrMNJdzm3Bh1lp0U7VMTIHC3-pfdI1gPZwcVhghv0oowNwqdgQM0EvPxB_CJYzgeWorevoyNgSYjGW-kdfFaazkYFhbSfp72rjeYtNBz1x6TMVUKKYy0]--></g></svg>